<mxfile host="app.diagrams.net" modified="2024-08-16T09:11:35.689Z" agent="Mozilla/5.0 (Macintosh; Intel Mac OS X 10_15_7) AppleWebKit/537.36 (KHTML, like Gecko) Chrome/127.0.0.0 Safari/537.36" version="24.4.10" etag="0wV6aQAlu-I07j4_CH2S" type="github">
  <diagram name="第 1 页" id="ozGO03fqMarl44t-PGcD">
    <mxGraphModel>
      <root>
        <mxCell id="0" />
        <mxCell id="1" parent="0" />
      </root>
    </mxGraphModel>
  </diagram>
</mxfile>
